<svg version="1.1" xmlns="http://www.w3.org/2000/svg" viewBox="0 0 1526.8000183105469 3796.2000694274902" width="1526.8000183105469" height="3796.2000694274902" filter="invert(93%) hue-rotate(180deg)">
  <!-- svg-source:excalidraw -->
  
  <defs>
    <style class="style-fonts">
      @font-face {
        font-family: "Virgil";
        src: url("https://excalidraw.com/Virgil.woff2");
      }
      @font-face {
        font-family: "Cascadia";
        src: url("https://excalidraw.com/Cascadia.woff2");
      }
    </style>
  </defs>
  <rect x="0" y="0" width="1526.8000183105469" height="3796.2000694274902" fill="#ffffff"></rect><g stroke-linecap="round" transform="translate(10 10) rotate(0 753.4000091552734 1888.1000347137451)"><path d="M-0.61 -0.36 C516.8 1.4, 1035.59 2.51, 1506.49 0.2 M-0.31 0.01 C573.28 -1.5, 1146.47 -1.37, 1506.83 -0.08 M1506.84 0.43 C1509.42 1285.67, 1509.64 2573.14, 1506.65 3775.41 M1506.71 -0.35 C1502.35 1276.87, 1502.44 2553.98, 1506.41 3776.28 M1507.33 3776.78 C957.84 3781.17, 407.44 3780.8, 0.63 3776.51 M1506.63 3776.19 C1133.79 3774.21, 761.22 3773.99, -0.03 3776.16 M0.31 3776.86 C-11.91 2531.41, -12.45 1285.84, 0.47 -0.55 M-0.19 3775.97 C5 2326.39, 5.11 876.32, -0.22 0.23" stroke="#000000" stroke-width="1" fill="none"></path></g><g stroke-linecap="round" transform="translate(49.499969482421875 133.8375453948977) rotate(0 657.0000457763672 31.500015258789062)"><path d="M0.42 0.55 C525.47 4.1, 1050.96 4.14, 1314.56 -0.74 M-0.14 -0.01 C473.37 -0.24, 946.51 -0.19, 1314.19 0.34 M1313.72 0.17 C1313.99 23.13, 1315.74 45.74, 1312.02 63.3 M1313.21 -0.34 C1313.03 16.41, 1314.82 34.05, 1314.2 63.75 M1313.85 62.8 C1019.05 65.49, 725.31 66.54, 0.61 63.57 M1314 62.86 C955.32 62.34, 596.81 62.22, 0.33 63.11 M0.12 63.59 C0.34 41.07, 0.81 21.85, -0.66 1.82 M0.98 63.66 C0.03 50, 1.02 34.83, 0.36 0.06" stroke="#000000" stroke-width="1" fill="none"></path></g><g stroke-linecap="round" transform="translate(47.49977111816406 226.83749008178734) rotate(0 662.9999923706055 262.5)"><path d="M-0.54 -0.12 C517.72 2.91, 1035.12 4.01, 1325.21 -0.51 M-0.23 -0.16 C437.42 -3.62, 875.68 -3.71, 1325.66 0.16 M1326.78 0.08 C1326.06 116.36, 1324.99 232.49, 1325.3 524.31 M1325.7 -0.17 C1325.89 187.03, 1325.95 374.41, 1326.22 524.67 M1326.13 525.26 C1054.55 530.1, 781.39 529.47, 0.05 524.55 M1325.73 524.93 C996.83 526.08, 667.32 525.71, 0.14 525.1 M-0.2 524.4 C-0.68 332.1, -1.53 138.77, -0.12 -0.45 M0.33 525.19 C1.36 349.97, 1.89 175.2, -0.13 0.33" stroke="#000000" stroke-width="1" fill="none"></path></g><g transform="translate(69.49996948242188 143.27506637573265) rotate(0 56 21)"><text x="112" y="33" font-family="Helvetica, Segoe UI Emoji" font-size="36px" fill="#000000" text-anchor="end" style="white-space: pre;" direction="ltr">navbar</text></g><g stroke-linecap="round" transform="translate(685.5001068115234 138.40006637573265) rotate(0 54.00001525878906 26)"><path d="M-0.43 -1.61 C33.34 -1.15, 68.12 1.48, 109.27 0.41 M-0.98 -0.47 C28.04 0.53, 56.86 0.27, 108.66 0.25 M107.24 -0.36 C109.42 19.7, 107.97 37.02, 108 51.95 M107.3 0.43 C107.58 11.63, 108.36 24.89, 108.97 52.4 M109.66 53.96 C71.75 54.69, 37.63 51.58, -0.4 51.38 M107.39 52.51 C69.29 51.62, 30.89 50.95, -0.31 52.73 M-0.21 53.84 C0.6 37.85, 0.94 26.7, -1.77 0.48 M-0.67 52.26 C0.67 34.92, 0.54 18.78, -0.42 -0.99" stroke="#000000" stroke-width="1" fill="none"></path></g><g transform="translate(694.5001220703125 143.40006637573265) rotate(0 45 21)"><text x="45" y="33" font-family="Helvetica, Segoe UI Emoji" font-size="36px" fill="#000000" text-anchor="middle" style="white-space: pre;" direction="ltr">item1</text></g><g stroke-linecap="round" transform="translate(814.5000457763672 139.4000511169436) rotate(0 64.50000762939453 26)"><path d="M1.96 0.29 C38.09 1.31, 77.44 -0.75, 127.53 1.18 M0.9 -0.27 C49.95 0.1, 98.76 -0.75, 128.33 0.35 M128.91 0.96 C128.85 15.23, 127.53 28.71, 128.88 52.56 M129.26 -0.9 C129.85 19.19, 129.5 38.23, 129.99 51.88 M128.35 51.78 C78.31 50.02, 27.99 49.89, -0.54 50.05 M128.84 52.4 C99.24 53.38, 67.68 52.83, 0.78 51.14 M-0.5 52.74 C0.33 37.82, -0.2 28.47, -0.82 1.44 M0.18 52.72 C-0.98 38.49, -0.16 23.7, -0.77 -0.74" stroke="#000000" stroke-width="1" fill="none"></path></g><g transform="translate(834.0000534057617 144.4000511169436) rotate(0 45 21)"><text x="45" y="33" font-family="Helvetica, Segoe UI Emoji" font-size="36px" fill="#000000" text-anchor="middle" style="white-space: pre;" direction="ltr">item2</text></g><g stroke-linecap="round" transform="translate(970.5001068115234 140.40005493164085) rotate(0 60.99998474121094 26)"><path d="M-0.28 1.35 C43.88 -2.67, 90.95 -1.22, 121.07 -1.06 M0.19 -0.67 C37.07 0.56, 76.4 0.82, 122.02 0.33 M121.68 0.13 C123.97 14.71, 122.24 32.37, 120.94 50.33 M121.3 0.4 C121.84 14.07, 122.33 26.3, 121.38 52.99 M121.64 50.09 C77.13 54.63, 31.59 53.01, 0.37 53.04 M121.44 52.97 C75.28 51.21, 30.15 51.67, -0.6 52.74 M0.83 52.34 C1.46 41.78, -0.83 28.81, 1.91 -0.09 M0.72 51.63 C0.06 40.15, 0.01 26.9, -0.54 -0.91" stroke="#000000" stroke-width="1" fill="none"></path></g><g transform="translate(986.5000915527344 145.40005493164085) rotate(0 45 21)"><text x="45" y="33" font-family="Helvetica, Segoe UI Emoji" font-size="36px" fill="#000000" text-anchor="middle" style="white-space: pre;" direction="ltr">item3</text></g><g stroke-linecap="round" transform="translate(1111.500015258789 142.40006256103538) rotate(0 60.99998474121094 26)"><path d="M-0.66 0.65 C35.52 -2.06, 69.71 0.73, 121.57 0.2 M0.58 -0.67 C26.43 0.26, 52.68 1.13, 121.48 0.08 M120.1 -0.4 C120.62 15.64, 121.41 33.88, 120.71 50.72 M122.32 0.03 C121.33 12.09, 121.38 24.08, 122.53 52.48 M120.16 50.69 C92.56 50.37, 65.02 51.02, -0.8 52.28 M121.8 51.95 C95.9 52.92, 70.39 53.17, 0.17 51.1 M0.07 52.2 C1.23 32.88, -0.55 12.33, 0.56 0.19 M-0.17 52.01 C0.35 40.8, -0.65 31.24, 0.13 0.64" stroke="#000000" stroke-width="1" fill="none"></path></g><g transform="translate(1127.5 147.40006256103538) rotate(0 45 21)"><text x="45" y="33" font-family="Helvetica, Segoe UI Emoji" font-size="36px" fill="#000000" text-anchor="middle" style="white-space: pre;" direction="ltr">item4</text></g><g stroke-linecap="round" transform="translate(1249.5000457763672 137.40004348754906) rotate(0 51.50001525878906 26)"><path d="M-0.33 0.02 C21.27 -1.64, 40.38 0.56, 103.26 1.28 M0.19 0.57 C36.59 0.44, 72.27 0.31, 103.57 -0.65 M104.51 1.88 C102.4 14.44, 103.53 26.19, 102.57 50.11 M102 -0.03 C103.38 19.3, 103.59 40.53, 102.24 52.85 M104.55 52.92 C74.44 51.23, 49.75 50.8, -1.08 51.39 M102.26 52.61 C76.99 51.22, 51.69 52.36, -0.23 51.67 M-1.35 50.88 C1.5 36.58, -1.03 21.67, 1.57 0.87 M0.24 51.16 C-0.01 36.97, -0.28 22.15, 0.57 -0.58" stroke="#000000" stroke-width="1" fill="none"></path></g><g transform="translate(1256.0000610351562 142.40004348754906) rotate(0 45 21)"><text x="45" y="33" font-family="Helvetica, Segoe UI Emoji" font-size="36px" fill="#000000" text-anchor="middle" style="white-space: pre;" direction="ltr">item5</text></g><g stroke-linecap="round"><g transform="translate(672.5000762939453 234.4625453948977) rotate(0 5.36054538451134 261.05928435251116)"><path d="M0.75 -0.16 C0.27 107.82, 2.85 216.52, 10.69 522.28 M-0.17 0.05 C2.29 154.25, 5.42 307.9, 10.89 521.86" stroke="#000000" stroke-width="1" fill="none"></path></g></g><mask></mask><g stroke-linecap="round"><g transform="translate(95.50003051757812 499.46255493164085) rotate(0 291.6112175457179 -1.0279491929337041)"><path d="M0.15 0.75 C230.23 0.73, 459.63 0.52, 583.07 -2.45 M0.26 -0.03 C161.57 -0.5, 323.19 -1.52, 582.96 -2.8" stroke="#000000" stroke-width="1" fill="none"></path></g></g><mask></mask><g transform="translate(269.5000457763672 332.96255493164085) rotate(0 65 21)"><text x="130" y="33" font-family="Helvetica, Segoe UI Emoji" font-size="36px" fill="#000000" text-anchor="end" style="white-space: pre;" direction="ltr">heading</text></g><g transform="translate(230.50001525878906 577.9625167846682) rotate(0 83 21)"><text x="166" y="33" font-family="Helvetica, Segoe UI Emoji" font-size="36px" fill="#000000" text-anchor="end" style="white-space: pre;" direction="ltr">paragraph</text></g><g transform="translate(919.5000457763672 433.9625396728518) rotate(0 50 21)"><text x="100" y="33" font-family="Helvetica, Segoe UI Emoji" font-size="36px" fill="#000000" text-anchor="end" style="white-space: pre;" direction="ltr">image</text></g><g transform="translate(603.5000305175781 55.71253204345726) rotate(0 86 21)"><text x="172" y="33" font-family="Helvetica, Segoe UI Emoji" font-size="36px" fill="#000000" text-anchor="end" style="white-space: pre;" direction="ltr">homepage</text></g><g stroke-linecap="round" transform="translate(124.50000762939453 264.7750453948977) rotate(0 246.00000381469727 95.49999713897705)"><path d="M32 0 M32 0 C121.81 0.47, 210.24 -0.75, 460 0 M32 0 C127.41 0.01, 222.04 -0.29, 460 0 M460 0 C483.17 1.73, 491.19 9.2, 492 32 M460 0 C479.59 -2.24, 494.01 10.36, 492 32 M492 32 C490.17 79.14, 490.92 126.58, 492 159 M492 32 C492.16 65.94, 493.82 101.4, 492 159 M492 159 C491.89 181.78, 481.59 191.07, 460 191 M492 159 C490.5 179.65, 479.25 191.38, 460 191 M460 191 C288.42 192.36, 118.9 190.76, 32 191 M460 191 C320.1 191.22, 179.87 191.29, 32 191 M32 191 C10.12 191.08, -1.19 179.47, 0 159 M32 191 C12.51 189.98, 0.36 178.96, 0 159 M0 159 C-0.19 125.4, 1.61 89.62, 0 32 M0 159 C0.6 127.34, -0.03 93.64, 0 32 M0 32 C0.84 12.15, 12.31 -1.76, 32 0 M0 32 C0.78 12.03, 8.92 1.65, 32 0" stroke="#000000" stroke-width="1" fill="none"></path></g><g stroke-linecap="round" transform="translate(122.50003814697266 528.7750701904299) rotate(0 258.99999618530273 95.99998474121094)"><path d="M32 0 M32 0 C146.12 2.45, 258.24 2.24, 486 0 M32 0 C194.78 -0.99, 358.45 -1.63, 486 0 M486 0 C507 -1.83, 517.08 10.12, 518 32 M486 0 C508.81 2.14, 516.47 11.23, 518 32 M518 32 C519.81 61.43, 517.35 91.76, 518 160 M518 32 C516.5 82.18, 517.9 131.47, 518 160 M518 160 C519.21 179.58, 506.4 192.38, 486 192 M518 160 C517.87 182.4, 507.12 190.43, 486 192 M486 192 C311.18 192.67, 136.08 192.72, 32 192 M486 192 C340.89 192.38, 195.5 192.67, 32 192 M32 192 C10.79 193.32, 1.5 182.93, 0 160 M32 192 C10.86 194.15, -1.59 180.16, 0 160 M0 160 C-0.96 123.19, -2.49 86.92, 0 32 M0 160 C-1.27 116.64, -0.38 75.37, 0 32 M0 32 C-1.67 10.9, 9.76 -0.71, 32 0 M0 32 C-0.17 11.87, 12.92 0.98, 32 0" stroke="#000000" stroke-width="1" fill="none"></path></g><g stroke-linecap="round" transform="translate(715.5000305175781 275.1500587463381) rotate(0 287.99999237060547 220.50000190734863)"><path d="M0.42 0.79 C147.03 -0.28, 293.86 0.64, 575.85 -0.13 M-0.39 -0.07 C135.62 -2, 271.01 -2.2, 575.79 -0.13 M575.1 -0.93 C577.06 127.88, 576.12 256.71, 575.83 440.97 M576.4 -0.14 C575.96 94.17, 575.51 188.66, 575.72 441.21 M575.51 440.78 C356.63 443.42, 137.68 443.16, -0.56 440.95 M576.39 440.99 C433.79 440.31, 291.24 440.26, -0.05 441.22 M-0.85 440.51 C-2.18 288.9, -1.55 134.68, -0.14 0.88 M0.46 441.4 C-1.06 303.34, -1.89 164.85, 0.07 0.24" stroke="#000000" stroke-width="1" fill="none"></path></g><g stroke-linecap="round" transform="translate(52.875022888183594 810.212543487549) rotate(0 682.0001029968262 392.0000171661377)"><path d="M0.23 -0.42 C289.57 -1.62, 580.47 -1.2, 1363.69 -0.75 M0.19 -0.38 C384.34 2.55, 768.11 3.2, 1364.06 -0.35 M1363.98 0.72 C1364.01 225.98, 1365.27 451.8, 1364.35 783.93 M1364.34 0.07 C1365.34 256.86, 1364.95 513.98, 1364.27 784.1 M1363.25 783.67 C1063.67 781.66, 763.57 780.45, 0.58 783.43 M1363.85 783.83 C907.24 783.55, 450.95 783.59, 0.17 784.34 M0.65 783.56 C0.44 507.71, -0.12 231.85, -0.27 -0.06 M-0.34 784.1 C-2.35 492.02, -2.56 200.76, -0.17 0.2" stroke="#000000" stroke-width="1" fill="none"></path></g><g transform="translate(635.8750762939453 835.5875339508059) rotate(0 105.5 21)"><text x="211" y="33" font-family="Helvetica, Segoe UI Emoji" font-size="36px" fill="#000000" text-anchor="end" style="white-space: pre;" direction="ltr">join us Today</text></g><g stroke-linecap="round" transform="translate(77.8750228881836 953.0875473022463) rotate(0 656.4999961853027 237.5)"><path d="M0.38 0.5 C440.87 -0.13, 881.64 -1.1, 1312.39 0.44 M0.23 0.34 C312.97 -2.84, 626.02 -2.55, 1312.91 0.33 M1312.73 0.34 C1310.75 181.63, 1311.67 365.28, 1312.81 474.35 M1313.23 0.3 C1314.08 152.91, 1313.52 304.9, 1312.91 474.77 M1312.36 475.15 C801.48 474.17, 290.19 475.45, 0.25 474.33 M1312.71 474.66 C1029.82 469.54, 746.2 469.74, 0.04 475.12 M-0.05 475.06 C0.67 332.57, 0.62 190.65, 0.16 0.75 M0.01 474.86 C0.29 305.76, 0.91 136.68, 0.37 -0.24" stroke="#000000" stroke-width="1" fill="none"></path></g><g stroke-linecap="round" transform="translate(101.87503814697266 982.087543487549) rotate(0 140.00001907348633 189.00002479553223)"><path d="M0.59 0.23 C93.54 0.72, 184.85 2.25, 279.48 -0.82 M0.42 -0.43 C87.02 -1.91, 175.41 -1.96, 279.53 -0.06 M280.91 0.91 C279.46 84.27, 280.4 169.97, 280.27 378.33 M279.91 0.41 C282.02 121.87, 281.81 244.31, 279.76 377.67 M281.03 377.65 C176.3 377.16, 71.25 378.54, 0.04 378.06 M279.64 378.68 C208.91 376.65, 138.92 376.35, -0.28 377.7 M-0.96 378.36 C-0.44 277.13, -0.45 176.96, -1.05 1.03 M-0.07 378.45 C-0.88 294.62, -0.83 210.9, -0.5 0.24" stroke="#000000" stroke-width="1" fill="none"></path></g><g stroke-linecap="round" transform="translate(413.8750457763672 989.0875892639162) rotate(0 158.9999771118164 184.99999046325684)"><path d="M0.73 1.33 C126.65 -0.47, 252.72 -1.6, 318.25 0.86 M0.18 -0.04 C114.79 -0.21, 229.03 -0.34, 317.65 -0.41 M317.4 1.17 C317.43 90.69, 318.14 179.6, 317.36 369.74 M318.46 -0.51 C316.77 89.36, 316.97 177.22, 317.72 370.09 M317.64 369.83 C210.83 368.62, 105.79 368.37, 0.43 368.66 M318.43 370.62 C239.4 369.01, 161.5 368.85, 0.05 370.44 M-0.19 370.83 C1.6 269.16, 2.3 166.74, -0.45 0.85 M0.07 370.19 C0.85 254.68, 0.69 139.38, -0.11 -0.53" stroke="#000000" stroke-width="1" fill="none"></path></g><g stroke-linecap="round" transform="translate(769.8750305175781 989.0875892639162) rotate(0 148.5000228881836 183.49997520446777)"><path d="M0.9 -0.19 C60.58 1.11, 120.97 2.23, 296.39 0.66 M-0.61 -0.26 C83.11 1.71, 167 1.27, 297.1 -0.41 M296.73 -0.65 C297.12 119.09, 299.02 240.59, 297.16 366.33 M297.34 0.54 C297.5 103.41, 297.56 208.15, 297.4 366.51 M296.28 366.96 C179.16 366.45, 61.76 365.23, 0.74 367.57 M297.33 366.38 C196.5 366.56, 97.45 367.18, 0.03 366.38 M0.73 365.81 C0.37 245.34, 1.67 125.11, 1.15 0.65 M0.42 366.89 C-2.51 271.51, -1.66 176.54, 0.08 0.22" stroke="#000000" stroke-width="1" fill="none"></path></g><g stroke-linecap="round" transform="translate(1087.8751373291016 981.0875587463381) rotate(0 136.99996948242188 190.9999942779541)"><path d="M-0.26 -0.16 C57.13 0.38, 112.92 -1.7, 275.37 1.25 M-0.47 -0.4 C74.62 -2.03, 149.64 -2.44, 273.68 0.33 M273.57 -0.32 C274.64 133.57, 274.31 264.59, 272.99 382.1 M274.5 -0.49 C275.63 78.19, 275.42 155.87, 273.99 381.55 M272.57 381.88 C175.16 379.93, 74.12 381.46, -0.51 381.57 M274.21 381.99 C218.25 382.38, 162.25 382.2, -0.3 382.68 M0.5 382.97 C-0.79 296.3, -2.35 208.76, -0.75 -0.4 M-0.37 382.19 C-0.91 302.79, -0.24 222.89, -0.08 -0.56" stroke="#000000" stroke-width="1" fill="none"></path></g><g stroke-linecap="round" transform="translate(143.87500762939453 1036.0875587463381) rotate(0 102.00004577636719 29.999971389770508)"><path d="M15 0 M15 0 C60.38 1.31, 101.38 -0.92, 189 0 M15 0 C80.41 -1.29, 147.06 -0.11, 189 0 M189 0 C198.07 1.61, 203.06 6.22, 204 15 M189 0 C198.52 1.38, 205.7 2.84, 204 15 M204 15 C202.44 25.75, 203.14 37.31, 204 45 M204 15 C204.68 24.4, 205.03 32.95, 204 45 M204 45 C204.94 54.31, 198.89 60.83, 189 60 M204 45 C203.41 55.9, 201.05 58.44, 189 60 M189 60 C153.62 59.5, 119.4 57.88, 15 60 M189 60 C152.3 59.24, 114.49 60.33, 15 60 M15 60 C3.28 60.73, 0.51 53.04, 0 45 M15 60 C3.83 60.44, 1.62 55.81, 0 45 M0 45 C-1.34 34.46, 1.55 25.72, 0 15 M0 45 C0.2 35.77, 0.04 25.27, 0 15 M0 15 C-1.48 4.24, 5.75 -0.87, 15 0 M0 15 C1.3 6.61, 4.36 1.16, 15 0" stroke="#000000" stroke-width="1" fill="none"></path></g><g transform="translate(211.87505340576172 1045.0875301361086) rotate(0 34 21)"><text x="34" y="33" font-family="Helvetica, Segoe UI Emoji" font-size="36px" fill="#000000" text-anchor="middle" style="white-space: pre;" direction="ltr">icon</text></g><g stroke-linecap="round" transform="translate(139.87499237060547 1107.0875625610354) rotate(0 102.49998092651367 28.500003814697266)"><path d="M14.25 0 M14.25 0 C54.8 2.71, 96.51 2.54, 190.75 0 M14.25 0 C57.81 1.3, 102 2.22, 190.75 0 M190.75 0 C201.66 -1.98, 203.08 5.52, 205 14.25 M190.75 0 C200.65 -2.23, 204.73 5.19, 205 14.25 M205 14.25 C204.67 23.18, 206.87 31.76, 205 42.75 M205 14.25 C204.49 23.6, 204.51 32.16, 205 42.75 M205 42.75 C203.25 51.91, 199.45 57.92, 190.75 57 M205 42.75 C206.27 50.42, 201.37 58.46, 190.75 57 M190.75 57 C123.41 56.91, 53.15 54.74, 14.25 57 M190.75 57 C153.76 58.32, 117.77 57.58, 14.25 57 M14.25 57 C5.4 55.07, -0.38 54.16, 0 42.75 M14.25 57 C6.05 58.71, 0.11 51.23, 0 42.75 M0 42.75 C-1.67 32.56, -0.31 25.11, 0 14.25 M0 42.75 C1.06 36.47, -0.85 27.99, 0 14.25 M0 14.25 C-1.14 4.43, 4.98 0.86, 14.25 0 M0 14.25 C-1.4 6.19, 6.79 1.1, 14.25 0" stroke="#000000" stroke-width="1" fill="none"></path></g><g stroke-linecap="round" transform="translate(143.8750457763672 1179.0875320434573) rotate(0 99.99998092651367 26)"><path d="M13 0 M13 0 C49.82 -0.45, 82.86 -0.45, 187 0 M13 0 C81.04 1.13, 149.63 1.81, 187 0 M187 0 C196.53 -1.22, 201.26 6.11, 200 13 M187 0 C196.76 -1.13, 200.86 5.29, 200 13 M200 13 C199.84 19.59, 201.37 28.1, 200 39 M200 13 C200.4 19.04, 199.52 24.45, 200 39 M200 39 C200.73 45.94, 197.3 53.44, 187 52 M200 39 C202.07 47.92, 195.72 50.07, 187 52 M187 52 C127.14 52.4, 70.78 52.35, 13 52 M187 52 C150.14 52.77, 112.92 51.12, 13 52 M13 52 C5.41 53.97, 1.14 47.29, 0 39 M13 52 C3.61 54.07, -0.98 47.72, 0 39 M0 39 C-1.67 33.76, 0.4 24.05, 0 13 M0 39 C-0.49 30.35, -0.43 21.55, 0 13 M0 13 C-1.34 5.03, 3.96 -1.74, 13 0 M0 13 C-1.44 6.19, 4.98 -1.64, 13 0" stroke="#000000" stroke-width="1" fill="none"></path></g><g transform="translate(204.87502670288086 1184.0875320434573) rotate(0 39 21)"><text x="39" y="33" font-family="Helvetica, Segoe UI Emoji" font-size="36px" fill="#000000" text-anchor="middle" style="white-space: pre;" direction="ltr">stats</text></g><g stroke-linecap="round" transform="translate(137.8750228881836 1244.0875320434573) rotate(0 99.4999885559082 27.000045776367188)"><path d="M13.5 0 M13.5 0 C64.17 0.95, 112.8 0.44, 185.5 0 M13.5 0 C58.46 0.52, 103.79 -0.7, 185.5 0 M185.5 0 C196.39 -1.29, 199.35 2.54, 199 13.5 M185.5 0 C194.07 1.36, 201.03 5.29, 199 13.5 M199 13.5 C197.76 22.63, 200.74 31.92, 199 40.5 M199 13.5 C199.91 23.11, 199.1 34.06, 199 40.5 M199 40.5 C197.94 51.08, 192.59 55.25, 185.5 54 M199 40.5 C196.79 51.74, 195.69 51.97, 185.5 54 M185.5 54 C143.19 51.73, 101.06 53.46, 13.5 54 M185.5 54 C149.25 55.8, 114.01 54.89, 13.5 54 M13.5 54 C4.42 53.85, 1.22 49.77, 0 40.5 M13.5 54 C2.75 56.15, -1.87 49.24, 0 40.5 M0 40.5 C-0.18 30.58, -1.72 24.28, 0 13.5 M0 40.5 C0.67 30.14, 0.65 18.92, 0 13.5 M0 13.5 C0.13 6.06, 5.81 -1.78, 13.5 0 M0 13.5 C-0.56 6, 4.93 -1.06, 13.5 0" stroke="#000000" stroke-width="1" fill="none"></path></g><g transform="translate(208.3750114440918 1250.0875778198244) rotate(0 29 21)"><text x="29" y="33" font-family="Helvetica, Segoe UI Emoji" font-size="36px" fill="#000000" text-anchor="middle" style="white-space: pre;" direction="ltr">join</text></g><g transform="translate(188.87501525878906 1112.58757019043) rotate(0 46 21)"><text x="92" y="33" font-family="Helvetica, Segoe UI Emoji" font-size="36px" fill="#000000" text-anchor="end" style="white-space: pre;" direction="ltr">name</text></g><g stroke-linecap="round" transform="translate(50.87501525878906 1632.9000549316409) rotate(0 694.0000152587891 374.9999809265137)"><path d="M0.2 -0.33 C400.06 4.12, 801.44 5.34, 1387.75 -0.24 M0.39 0.06 C498.57 0.5, 997.48 0.53, 1387.86 0.26 M1387.68 -0.32 C1385.47 211.07, 1385.18 422.55, 1387.44 749.53 M1388.35 0.14 C1390.87 221.67, 1390.52 443, 1388.02 750.36 M1388.21 749.44 C901.61 747.4, 417.14 746.44, -0.23 750.45 M1388.33 750 C917.35 744.95, 445.94 745.36, 0.37 749.63 M0.22 750.12 C0.76 500.23, 0.44 251.18, -0.75 -0.21 M-0.2 750.07 C1.83 506.52, 2.17 262.56, 0.08 0.38" stroke="#000000" stroke-width="1" fill="none"></path></g><g stroke-linecap="round" transform="translate(104.87503051757812 1659.5875816345217) rotate(0 238.0000114440918 128.99998664855957)"><path d="M0.55 0.52 C142.92 -0.63, 284.9 -0.35, 475.43 -0.83 M0.41 -0.43 C114.79 1.48, 229.92 1.69, 475.96 0.41 M477.4 -1.09 C473.99 79.6, 475.75 161.04, 474.9 259.19 M475.72 0.66 C476.97 91.86, 476.01 183.2, 475.64 257.25 M476.84 257.8 C330.44 260.26, 184.69 259.19, 0.71 258.12 M475.89 257.94 C362.26 256.19, 248.18 255.87, -0.33 257.64 M-0.62 259.1 C0.92 192.08, -0.66 128.17, 0.5 1.18 M-0.24 257.3 C0.38 202.11, 0.08 146.71, -0.31 0.23" stroke="#000000" stroke-width="1" fill="none"></path></g><g stroke-linecap="round"><g transform="translate(717.3750305175781 1638.2125453948977) rotate(0 2.2896846624091154 371.10974025111636)"><path d="M-0.49 -0.03 C3.19 274.05, 4.11 547.08, 4.38 741.76 M0.24 0 C3.8 157.7, 5.01 315.15, 5.07 742.25" stroke="#000000" stroke-width="1" fill="none"></path></g></g><mask></mask><g transform="translate(257.3749771118164 1689.7750892639162) rotate(0 68 21)"><text x="136" y="33" font-family="Helvetica, Segoe UI Emoji" font-size="36px" fill="#000000" text-anchor="end" style="white-space: pre;" direction="ltr">Heading</text></g><g stroke-linecap="round" transform="translate(148.37501525878906 1752.7125625610354) rotate(0 186.50001525878906 65.49999237060547)"><path d="M32 0 M32 0 C114.94 -1.68, 200.77 -0.64, 341 0 M32 0 C140.38 -0.3, 249.59 -0.17, 341 0 M341 0 C362.1 -1.44, 373.66 12.29, 373 32 M341 0 C360.24 1.53, 371.69 9.41, 373 32 M373 32 C373.66 50.8, 372.71 69.25, 373 99 M373 32 C372.29 52.43, 372.24 71.91, 373 99 M373 99 C371.93 121.6, 364.06 129.5, 341 131 M373 99 C374.58 120.77, 360.8 132.44, 341 131 M341 131 C239.44 133.92, 137.41 133.9, 32 131 M341 131 C252.15 131.11, 162.17 131.23, 32 131 M32 131 C11.34 132.68, 0.47 118.95, 0 99 M32 131 C9.52 132.13, 2.16 118.86, 0 99 M0 99 C0.26 83.14, -1.36 68.04, 0 32 M0 99 C-0.38 79.08, -0.3 57.96, 0 32 M0 32 C1.59 9.39, 9.45 1.73, 32 0 M0 32 C0.52 11.32, 12.49 1.38, 32 0" stroke="#000000" stroke-width="1" fill="none"></path></g><g transform="translate(234.37503051757812 1786.2125625610354) rotate(0 79 21)"><text x="158" y="33" font-family="Helvetica, Segoe UI Emoji" font-size="36px" fill="#000000" text-anchor="end" style="white-space: pre;" direction="ltr">animation</text></g><g stroke-linecap="round" transform="translate(109.375 1964.7125320434573) rotate(0 247.99999237060547 39.4999885559082)"><path d="M19.75 0 M19.75 0 C129.29 0.9, 238.29 0.85, 476.25 0 M19.75 0 C168.8 -0.49, 317.44 -0.11, 476.25 0 M476.25 0 C487.77 0.37, 495.7 5.89, 496 19.75 M476.25 0 C489.12 1.17, 495.02 6.39, 496 19.75 M496 19.75 C495.57 32.19, 494.34 46.14, 496 59.25 M496 19.75 C495.88 34.83, 496.12 51.36, 496 59.25 M496 59.25 C494.9 72.8, 487.76 79.36, 476.25 79 M496 59.25 C497.98 71.57, 488.85 78.63, 476.25 79 M476.25 79 C311.35 80.55, 144.77 79.92, 19.75 79 M476.25 79 C329.52 77.22, 183.6 77.2, 19.75 79 M19.75 79 C8.03 78.94, 1.85 73.78, 0 59.25 M19.75 79 C8.6 80.75, 2.23 74.54, 0 59.25 M0 59.25 C0.92 45.33, -1.39 29.91, 0 19.75 M0 59.25 C-0.72 51.36, 0.81 42.71, 0 19.75 M0 19.75 C-0.59 6.67, 6.25 -1.36, 19.75 0 M0 19.75 C0.2 8.45, 4.77 2.11, 19.75 0" stroke="#000000" stroke-width="1" fill="none"></path></g><g stroke-linecap="round" transform="translate(87.37503051757812 1948.7125473022463) rotate(0 279.00001525878906 58.999996185302734)"><path d="M-0.02 -0.24 C118.55 1.07, 239.16 1.43, 557.61 -0.63 M0.12 0.36 C210.44 -0.46, 421.7 -0.67, 557.86 -0.22 M558.93 1.34 C560.03 44.78, 559.78 86.57, 557.18 118.13 M558.04 0.41 C557.97 25.17, 558.56 49.34, 558.72 117.16 M558.78 118.14 C402.97 119.59, 248.58 120.39, 0.08 117.46 M558.24 118.36 C345.09 119.84, 133.13 119.72, 0.15 118.05 M1.08 117.72 C0.16 86.14, -0.61 50.12, 0.75 -1.91 M-0.62 117.86 C-0.31 71.85, -1.56 24.54, -0.48 0.83" stroke="#000000" stroke-width="1" fill="none"></path></g><g transform="translate(259.3750228881836 1983.21257019043) rotate(0 83 21)"><text x="166" y="33" font-family="Helvetica, Segoe UI Emoji" font-size="36px" fill="#000000" text-anchor="end" style="white-space: pre;" direction="ltr">paragraph</text></g><g stroke-linecap="round" transform="translate(94.37503814697266 2107.9000549316406) rotate(0 285.5000114440918 58.999996185302734)"><path d="M-0.22 -0.09 C125.84 0.78, 251.94 1.08, 570.61 0.12 M0.21 -0.23 C170.46 -0.79, 341.31 -0.61, 570.77 -0.33 M569.9 -0.66 C572.89 39.01, 570 76.09, 569.23 116.44 M570.59 -0.39 C570.31 29.04, 571.01 55.95, 571.08 118.14 M570.79 118.53 C370.34 119.92, 169.18 118.88, -0.04 117.46 M571.05 118.28 C439.25 117.98, 307.63 117.79, 0.01 117.7 M1.44 118.44 C-0.83 91.1, 0.38 64.31, -0.85 1.35 M-0.43 118.46 C-0.35 83.97, 0.07 48.63, -0.35 0.38" stroke="#000000" stroke-width="1" fill="none"></path></g><g stroke-linecap="round" transform="translate(123.37501525878906 2135.900047302246) rotate(0 6.000003814697266 3.5000038146972656)"><path d="M3.91 0.31 C5.03 0, 7.25 -0.58, 8.32 -0.46 C9.39 -0.34, 9.83 0.24, 10.33 1.02 C10.83 1.81, 11.33 3.53, 11.33 4.25 C11.34 4.97, 11.11 4.79, 10.37 5.33 C9.62 5.87, 8.29 7.29, 6.85 7.48 C5.41 7.67, 3 6.91, 1.73 6.46 C0.45 6, -0.74 5.43, -0.8 4.76 C-0.86 4.1, 0.48 3.15, 1.38 2.45 C2.28 1.76, 4.15 0.97, 4.61 0.61 C5.07 0.25, 4.14 0.43, 4.12 0.3 M3.24 0.96 C4.43 0.59, 8.18 0.79, 9.42 1.09 C10.66 1.39, 10.43 2.33, 10.67 2.76 C10.91 3.19, 10.97 3.18, 10.85 3.65 C10.74 4.12, 10.82 5.06, 9.96 5.58 C9.1 6.09, 7.03 6.92, 5.71 6.76 C4.39 6.6, 2.87 5.3, 2.03 4.62 C1.18 3.94, 0.95 3.34, 0.64 2.69 C0.34 2.05, -0.25 1.01, 0.19 0.75 C0.63 0.49, 2.72 1, 3.28 1.12 C3.83 1.25, 3.38 1.67, 3.52 1.5" stroke="#000000" stroke-width="1" fill="none"></path></g><g stroke-linecap="round" transform="translate(122.37499237060547 2157.9000930786133) rotate(0 4.500007629394531 1.0000038146972656)"><path d="M2.02 -0.66 C2.71 -0.52, 4.48 0.48, 5.4 0.68 C6.31 0.88, 6.97 0.41, 7.51 0.55 C8.05 0.68, 8.57 1.26, 8.63 1.5 C8.69 1.74, 8.48 2, 7.87 2 C7.26 2, 5.86 1.4, 4.97 1.5 C4.08 1.6, 3.19 2.5, 2.51 2.59 C1.83 2.67, 1.27 2.34, 0.88 2 C0.48 1.67, -0.41 0.91, 0.15 0.57 C0.7 0.24, 3.34 0.25, 4.19 -0.01 C5.03 -0.27, 5.21 -0.86, 5.21 -0.97 M3.27 -1.27 C3.91 -1.1, 5.42 0.07, 6.24 0.62 C7.05 1.16, 7.65 1.68, 8.15 1.99 C8.65 2.3, 9.66 2.41, 9.25 2.47 C8.84 2.53, 6.49 2.41, 5.68 2.36 C4.86 2.31, 5.3 2.48, 4.35 2.15 C3.39 1.82, 0.47 0.42, -0.06 0.39 C-0.59 0.37, 0.87 1.91, 1.16 2.01 C1.45 2.11, 1.23 1.23, 1.67 1 C2.12 0.76, 3.2 0.97, 3.84 0.6 C4.49 0.24, 5.38 -1.04, 5.56 -1.19" stroke="#000000" stroke-width="1" fill="none"></path></g><g stroke-linecap="round" transform="translate(156.37500762939453 2255.9625701904297) rotate(0 185.00001907348633 45.5000114440918)"><path d="M-0.41 -1.02 C120.83 -0.45, 242.04 0.14, 368.89 0.62 M0.57 -0.13 C105.3 1.38, 211.78 0.77, 369.73 0.52 M369.84 -1.91 C370.33 25.91, 370.8 56.44, 368.97 90.52 M369.59 -0.14 C368.53 28.8, 369.26 59.12, 370.95 90.91 M370.47 90.89 C265.19 90.22, 161.58 91.43, -0.55 91.83 M370.6 91.19 C224.5 90.2, 77.91 90.29, -0.01 90.94 M0.87 92.09 C0.33 68.38, -0.69 43.34, 0.64 1.22 M0.2 91.66 C-0.13 58.43, -0.75 26.1, 0.43 0.63" stroke="#000000" stroke-width="1" fill="none"></path></g><g stroke-linecap="round" transform="translate(185.3750228881836 2272.9625396728516) rotate(0 158.50000381469727 31.000003814697266)"><path d="M15.5 0 M15.5 0 C90.45 -1.07, 163.8 -1.34, 301.5 0 M15.5 0 C126.23 -1.25, 236.89 -1.68, 301.5 0 M301.5 0 C312.47 -1.24, 318.27 4.76, 317 15.5 M301.5 0 C311.01 -1.5, 318.61 7.19, 317 15.5 M317 15.5 C317.67 20.72, 315.21 30.45, 317 46.5 M317 15.5 C315.9 25.63, 316.88 36.21, 317 46.5 M317 46.5 C315.69 55.05, 312.25 61.74, 301.5 62 M317 46.5 C316.2 58.59, 309.77 60.31, 301.5 62 M301.5 62 C217.52 62.94, 134.34 63.19, 15.5 62 M301.5 62 C196.73 63.44, 94.11 62.96, 15.5 62 M15.5 62 C4.98 63.55, 0.08 54.96, 0 46.5 M15.5 62 C4.67 61, -0.17 55.94, 0 46.5 M0 46.5 C0.56 37.5, 0.65 27.72, 0 15.5 M0 46.5 C0.22 37.69, 0.09 31.26, 0 15.5 M0 15.5 C0.88 5.62, 6.47 -1.58, 15.5 0 M0 15.5 C-0.57 5.11, 5.53 -0.15, 15.5 0" stroke="#000000" stroke-width="1" fill="none"></path></g><g transform="translate(208.37505340576172 2285.4625549316406) rotate(0 80 21)"><text x="160" y="33" font-family="Helvetica, Segoe UI Emoji" font-size="36px" fill="#000000" text-anchor="end" style="white-space: pre;" direction="ltr">bootcamp</text></g><g stroke-linecap="round"><g transform="translate(401.3750457763672 2307.9625396728516) rotate(0 36.17408537302168 1.2549506005204876)"><path d="M0.79 1.13 C13.03 1.45, 60.73 2.09, 72.6 2.08 M-0.25 0.68 C11.87 0.68, 59.01 0.23, 71.44 0.53" stroke="#000000" stroke-width="1" fill="none"></path></g><g transform="translate(401.3750457763672 2307.9625396728516) rotate(0 36.17408537302168 1.2549506005204876)"><path d="M45.07 9.97 C51.5 6.41, 56.4 7.21, 70.35 0 M42.34 9.72 C49.57 7.38, 55.52 4.69, 72.35 0.86" stroke="#000000" stroke-width="1" fill="none"></path></g><g transform="translate(401.3750457763672 2307.9625396728516) rotate(0 36.17408537302168 1.2549506005204876)"><path d="M45.18 -10.56 C51.61 -9.38, 56.48 -3.84, 70.35 0 M42.45 -10.8 C49.51 -8.36, 55.43 -6.28, 72.35 0.86" stroke="#000000" stroke-width="1" fill="none"></path></g></g><mask></mask><g stroke-linecap="round" transform="translate(837.3750305175781 1740.7125549316409) rotate(0 261.0000228881836 285.5000114440918)"><path d="M32 0 M32 0 C149.92 -1.28, 268.99 -0.81, 490 0 M32 0 C161.26 -0.63, 289.93 -0.74, 490 0 M490 0 C509.42 1.25, 523.57 8.93, 522 32 M490 0 C510.79 -2.04, 521.22 9.58, 522 32 M522 32 C522.4 190.41, 521.26 349.15, 522 539 M522 32 C522.01 232.54, 522.34 433.55, 522 539 M522 539 C520.22 559.67, 510.01 571.23, 490 571 M522 539 C522.01 560, 513.23 571.03, 490 571 M490 571 C336.3 569.8, 183.89 569.9, 32 571 M490 571 C370.31 572.44, 250.69 572.63, 32 571 M32 571 C8.89 571.58, 0.54 560.67, 0 539 M32 571 C12.69 571.21, 2.22 559.36, 0 539 M0 539 C1.83 426.11, 1.4 312.44, 0 32 M0 539 C1.08 360.56, 1.33 181.9, 0 32 M0 32 C-0.79 11.11, 11.57 0.6, 32 0 M0 32 C-0.79 9.54, 12.61 2.24, 32 0" stroke="#000000" stroke-width="1" fill="none"></path></g><g transform="translate(1031.3750915527344 1930.3376045227053) rotate(0 51 21)"><text x="102" y="33" font-family="Helvetica, Segoe UI Emoji" font-size="36px" fill="#000000" text-anchor="end" style="white-space: pre;" direction="ltr">Image</text></g><g stroke-linecap="round" transform="translate(49.375038146972656 2418.400047302246) rotate(0 708.0000495910645 472.99997329711914)"><path d="M0.57 0.1 C326.41 -4.1, 654.32 -3.48, 1415.67 0.06 M0.17 0.09 C442 2.87, 884.52 2.7, 1415.81 0.34 M1416.36 -0.72 C1417.58 364.8, 1417.38 730.27, 1415.38 946.47 M1416.23 0.39 C1415.78 210.27, 1415.32 421.55, 1416.01 945.76 M1416.12 946.12 C1049.76 946.14, 685.51 945.95, 0 946.39 M1415.82 946.4 C955.15 945.27, 494.34 945.07, 0.26 946.39 M0.36 946.11 C-1.61 649.18, -1.89 352.66, -0.05 -0.41 M0.13 946.24 C3.53 671.62, 3.22 397.06, -0.27 -0.02" stroke="#000000" stroke-width="1" fill="none"></path></g><g transform="translate(660.375 2439.962553024292) rotate(0 49.5 21)"><text x="99" y="33" font-family="Helvetica, Segoe UI Emoji" font-size="36px" fill="#000000" text-anchor="end" style="white-space: pre;" direction="ltr">FAQ's</text></g><g stroke-linecap="round" transform="translate(104.37503814697266 2557.212589263916) rotate(0 647.9999732971191 45.99997520446777)"><path d="M23 0 M23 0 C297.87 -3.33, 574.34 -3.41, 1273 0 M23 0 C414.81 2.53, 806.53 2.32, 1273 0 M1273 0 C1287.09 -1.41, 1296.98 6.37, 1296 23 M1273 0 C1286.82 -1.72, 1296.68 8.35, 1296 23 M1296 23 C1294.81 37.53, 1297.08 50.83, 1296 69 M1296 23 C1296.18 35.31, 1295.8 49.83, 1296 69 M1296 69 C1297.48 84.03, 1287.16 91.5, 1273 92 M1296 69 C1294.96 85.41, 1290.51 93.28, 1273 92 M1273 92 C966.19 89.24, 658.71 90.33, 23 92 M1273 92 C795.05 95.69, 317.89 95.94, 23 92 M23 92 C8.51 93.64, -1.7 84.13, 0 69 M23 92 C6.14 93.68, -1.14 85.15, 0 69 M0 69 C0.33 60.86, 0.81 51.55, 0 23 M0 69 C0.37 53.43, -1.21 38.14, 0 23 M0 23 C0.56 7.53, 7.72 -1.72, 23 0 M0 23 C1.37 6.31, 6.54 1.08, 23 0" stroke="#000000" stroke-width="1" fill="none"></path></g><g stroke-linecap="round" transform="translate(100.37490844726562 2670.212600708008) rotate(0 653.4999465942383 47.5)"><path d="M23.75 0 M23.75 0 C312.81 0.76, 602.05 0.88, 1283.25 0 M23.75 0 C406.44 -2.14, 789.17 -1.86, 1283.25 0 M1283.25 0 C1300.35 0.02, 1306.77 5.96, 1307 23.75 M1283.25 0 C1297.35 0.73, 1309.16 9.69, 1307 23.75 M1307 23.75 C1307.11 37.89, 1308.54 51.1, 1307 71.25 M1307 23.75 C1307.28 34.58, 1306.32 46.74, 1307 71.25 M1307 71.25 C1308.39 88.34, 1300.65 95.83, 1283.25 95 M1307 71.25 C1304.96 85.98, 1299.39 94.58, 1283.25 95 M1283.25 95 C946.99 98.19, 608.41 97.39, 23.75 95 M1283.25 95 C951.88 99.26, 620.6 99.76, 23.75 95 M23.75 95 C9.36 93.8, 1.3 86.3, 0 71.25 M23.75 95 C9.82 95.13, 0.45 86.62, 0 71.25 M0 71.25 C0.89 51.87, 2.09 33.74, 0 23.75 M0 71.25 C-1.01 59.88, -0.08 48.33, 0 23.75 M0 23.75 C1.72 6.64, 9.2 -1.53, 23.75 0 M0 23.75 C1.45 6.83, 6.9 -0.63, 23.75 0" stroke="#000000" stroke-width="1" fill="none"></path></g><g stroke-linecap="round" transform="translate(102.2500228881836 2781.400058746338) rotate(0 653.9999961853027 49.0000057220459)"><path d="M24.5 0 M24.5 0 C350.22 2.85, 676.36 2.76, 1283.5 0 M24.5 0 C280.6 3.76, 537.53 4.31, 1283.5 0 M1283.5 0 C1301.39 -0.68, 1309.54 7.03, 1308 24.5 M1283.5 0 C1301.96 0.83, 1308.09 10.18, 1308 24.5 M1308 24.5 C1310.28 34.71, 1310.05 47.07, 1308 73.5 M1308 24.5 C1307.68 38.05, 1307.53 52.49, 1308 73.5 M1308 73.5 C1307.68 89.23, 1298.71 99.21, 1283.5 98 M1308 73.5 C1307.69 91.13, 1298.42 97.39, 1283.5 98 M1283.5 98 C979.74 98.4, 677.71 98.66, 24.5 98 M1283.5 98 C880.48 96.97, 476.8 96.92, 24.5 98 M24.5 98 C9.12 98.95, -1.58 91.41, 0 73.5 M24.5 98 C5.97 98.39, 0.01 91.5, 0 73.5 M0 73.5 C-0.23 64.81, -0.45 53.19, 0 24.5 M0 73.5 C-1.08 57.54, -0.1 42.06, 0 24.5 M0 24.5 C1.39 7.32, 8.82 -0.2, 24.5 0 M0 24.5 C-2.21 10.07, 7.94 -0.83, 24.5 0" stroke="#000000" stroke-width="1" fill="none"></path></g><g stroke-linecap="round" transform="translate(100.25001525878906 2905.4000549316406) rotate(0 654.5000457763672 39.50000762939453)"><path d="M19.75 0 M19.75 0 C283.67 -2.71, 548.71 -2.63, 1289.25 0 M19.75 0 C402.92 -4.35, 785.73 -4.18, 1289.25 0 M1289.25 0 C1302.54 -1.22, 1309.07 6.89, 1309 19.75 M1289.25 0 C1303.59 -2.04, 1310.47 6.83, 1309 19.75 M1309 19.75 C1307.97 34.21, 1310.03 47.8, 1309 59.25 M1309 19.75 C1308.82 30.23, 1308.59 41.87, 1309 59.25 M1309 59.25 C1308.12 73.4, 1300.56 78.85, 1289.25 79 M1309 59.25 C1307.14 70.7, 1302.54 80.23, 1289.25 79 M1289.25 79 C981.66 79.44, 674.49 80.11, 19.75 79 M1289.25 79 C1019.28 75.74, 749.67 75.77, 19.75 79 M19.75 79 C5.02 80.15, 0.53 72.85, 0 59.25 M19.75 79 C6.95 76.85, 0.62 71.56, 0 59.25 M0 59.25 C-0.79 49.87, 0.89 41.02, 0 19.75 M0 59.25 C0.76 43.17, 0.64 29.21, 0 19.75 M0 19.75 C-0.28 5.87, 6.98 -0.28, 19.75 0 M0 19.75 C-0.43 5.72, 8.03 -2.06, 19.75 0" stroke="#000000" stroke-width="1" fill="none"></path></g><g stroke-linecap="round" transform="translate(103.25000762939453 3016.7125396728516) rotate(0 651.9999885559082 45.5000114440918)"><path d="M22.75 0 M22.75 0 C384.35 -1.85, 746.38 -2.18, 1281.25 0 M22.75 0 C326.1 -3.55, 629.34 -3.51, 1281.25 0 M1281.25 0 C1295.45 0.54, 1302.36 9.32, 1304 22.75 M1281.25 0 C1296.12 -0.89, 1302.41 5.56, 1304 22.75 M1304 22.75 C1304.54 33.1, 1302.15 48.23, 1304 68.25 M1304 22.75 C1305.16 32.86, 1305.32 41.45, 1304 68.25 M1304 68.25 C1303.72 82.43, 1297.05 92.6, 1281.25 91 M1304 68.25 C1304.77 83.43, 1294.29 90.62, 1281.25 91 M1281.25 91 C925.54 90.89, 568.18 90.33, 22.75 91 M1281.25 91 C876.74 90.57, 472.73 90.65, 22.75 91 M22.75 91 C6.93 91.32, -0.6 83.83, 0 68.25 M22.75 91 C7.22 91.96, -0.15 83.15, 0 68.25 M0 68.25 C-0.71 53.4, -0.68 33.79, 0 22.75 M0 68.25 C0.13 52.35, -1.17 39.09, 0 22.75 M0 22.75 C-0.17 8.06, 8.76 1.91, 22.75 0 M0 22.75 C0.83 9.16, 7.48 0.39, 22.75 0" stroke="#000000" stroke-width="1" fill="none"></path></g><g stroke-linecap="round" transform="translate(105.25001525878906 3132.712562561035) rotate(0 655.9999847412109 41.50003433227539)"><path d="M20.75 0 M20.75 0 C481.54 -1.96, 940.06 -1.69, 1291.25 0 M20.75 0 C515.96 4.76, 1011.96 4.88, 1291.25 0 M1291.25 0 C1306.04 0.5, 1310.17 5.35, 1312 20.75 M1291.25 0 C1305.24 -1.28, 1313.08 8.32, 1312 20.75 M1312 20.75 C1314.17 31.13, 1311.52 38.12, 1312 62.25 M1312 20.75 C1311.41 33.51, 1311.82 47.48, 1312 62.25 M1312 62.25 C1310.19 76.6, 1306.51 82.42, 1291.25 83 M1312 62.25 C1311.18 77.42, 1304 82.98, 1291.25 83 M1291.25 83 C832.6 85.79, 374.09 86.27, 20.75 83 M1291.25 83 C1033.48 78.38, 775.95 78.03, 20.75 83 M20.75 83 C7.82 84.62, 1.75 76.19, 0 62.25 M20.75 83 C5.26 81.05, 0.31 75.95, 0 62.25 M0 62.25 C0.21 50.52, 1.1 37.23, 0 20.75 M0 62.25 C1.03 53.82, -0.62 44.98, 0 20.75 M0 20.75 C0.3 8.32, 5.63 -0.97, 20.75 0 M0 20.75 C0.86 6.87, 6.25 2.16, 20.75 0" stroke="#000000" stroke-width="1" fill="none"></path></g><g stroke-linecap="round" transform="translate(111.25003814697266 3235.712631225586) rotate(0 652.9999732971191 43.49996566772461)"><path d="M21.75 0 M21.75 0 C491.92 3.61, 962.82 3.36, 1284.25 0 M21.75 0 C421.68 3.56, 822.24 3.44, 1284.25 0 M1284.25 0 C1297.45 -0.3, 1307.3 5.53, 1306 21.75 M1284.25 0 C1299.77 1.78, 1304.81 7.82, 1306 21.75 M1306 21.75 C1304.47 32.36, 1305.03 46.05, 1306 65.25 M1306 21.75 C1305.24 33.08, 1305.59 43, 1306 65.25 M1306 65.25 C1306.04 79.23, 1300.05 86.29, 1284.25 87 M1306 65.25 C1307.21 79.92, 1300.63 85.06, 1284.25 87 M1284.25 87 C815.62 88.41, 346.34 89.02, 21.75 87 M1284.25 87 C1026.45 83.04, 767.84 82.75, 21.75 87 M21.75 87 C7.2 88.84, -1.19 80.41, 0 65.25 M21.75 87 C8.43 86.53, -2.06 78.24, 0 65.25 M0 65.25 C1.52 49.11, -0.04 32.81, 0 21.75 M0 65.25 C-0.51 52.04, 0.75 38.47, 0 21.75 M0 21.75 C-0.13 7.5, 5.57 0.21, 21.75 0 M0 21.75 C-0.96 7.45, 9.22 0.67, 21.75 0" stroke="#000000" stroke-width="1" fill="none"></path></g><g stroke-linecap="round" transform="translate(52.250022888183594 3420.212562561035) rotate(0 713.9999961853027 161.50001525878906)"><path d="M32 0 M32 0 C320.85 -4.21, 610.03 -4.32, 1396 0 M32 0 C482.46 -0.87, 933.63 -1.04, 1396 0 M1396 0 C1418.63 0.88, 1427.93 11.45, 1428 32 M1396 0 C1416.57 -0.09, 1429.87 11.1, 1428 32 M1428 32 C1429.57 105.32, 1430.34 179.87, 1428 291 M1428 32 C1428.6 134.77, 1427.94 236.2, 1428 291 M1428 291 C1426.02 311.84, 1418.74 324.61, 1396 323 M1428 291 C1427.25 311.1, 1419.05 322, 1396 323 M1396 323 C1014.27 321.29, 631.34 321.67, 32 323 M1396 323 C1005.36 327.95, 615.06 328.31, 32 323 M32 323 C10.39 324.84, -0.19 311.23, 0 291 M32 323 C9.72 322.16, 1.63 313.19, 0 291 M0 291 C1.46 191.82, 2.53 93.44, 0 32 M0 291 C0.37 232.56, 0.44 174.37, 0 32 M0 32 C0.94 9.62, 12.59 1.84, 32 0 M0 32 C-1.57 11.17, 11.89 1.41, 32 0" stroke="#000000" stroke-width="1" fill="none"></path></g><g transform="translate(653.2500305175781 3551.712516784668) rotate(0 59 23)"><text x="118" y="32" font-family="Virgil, Segoe UI Emoji" font-size="36px" fill="#000000" text-anchor="end" style="white-space: pre;" direction="ltr">Footer</text></g></svg>